<svg xmlns="http://www.w3.org/2000/svg" width="22.039" height="19.635" viewBox="0 0 22.039 19.635">
  <g id="_Color" data-name=" ↳Color" fill="none">
    <path d="M11.019,15.781l6.81,3.855L16.022,12.37l6.017-4.888-7.923-.63L11.019,0l-3.1,6.852L0,7.482,6.017,12.37,4.209,19.635Z" stroke="none"/>
    <path d="M 17.06348419189453 18.62718963623047 L 15.46038246154785 12.18256092071533 L 20.75441360473633 7.881464004516602 L 13.7819128036499 7.326691150665283 L 11.01946258544922 1.214102983474731 L 8.257012367248535 7.326691150665283 L 1.284512162208557 7.881463527679443 L 6.578552722930908 12.18256092071533 L 4.975441932678223 18.62718772888184 L 11.01946258544922 15.20606136322021 L 17.06348419189453 18.62718963623047 M 17.82949256896973 19.63532066345215 L 11.01946258544922 15.78060150146484 L 4.209432601928711 19.63532066345215 L 6.016632556915283 12.37025165557861 L 2.585449237813009e-06 7.482091426849365 L 7.922992706298828 6.851691246032715 L 11.01946258544922 1.285400344386289e-06 L 14.11593246459961 6.851691246032715 L 22.0389232635498 7.482091426849365 L 16.02230262756348 12.37025165557861 L 17.82949256896973 19.63532066345215 Z" stroke="none" fill="#264fe2"/>
  </g>
</svg>
